# xmcd CD database file
#
# Track frame offsets:
#	150
#	43925
#	68525
#	90832
#	143742
#	176140
#	199670
#	226905
#	254412
#	276332
#	295322
#	311712
#
# Disc length: 4555 seconds
#
# Revision: 0
# Processed by: cddbd v1.5.1PL0 Copyright (c) Steve Scherf et al.
# Submitted via: CDex 1.51
#
DISCID=ae11c90c
DTITLE=Mighty Sam McClain - Reverend Raven and his Chain-Smoking Alter Boys - The Blues Is Alright - Live At Kalamazoo [CD2)
DYEAR=2004
DGENRE=Blues
TTITLE0=Gone For Good
TTITLE1=New Man In Town
TTITLE2=Thank You
TTITLE3=No More Tears
TTITLE4=Pray
TTITLE5=All We Need Is Love
TTITLE6=Big Bee
TTITLE7=Who's Gonna Be Your Sweet Man
TTITLE8=I'm Your Honey Boy
TTITLE9=Life Of Ease
TTITLE10=Born In Chicago
TTITLE11=My Back Scratcher
EXTD=YEAR: 2004
EXTT0=
EXTT1=
EXTT2=
EXTT3=
EXTT4=
EXTT5=
EXTT6=
EXTT7=
EXTT8=
EXTT9=
EXTT10=
EXTT11=
PLAYORDER=
